<?xml version="1.0" encoding="UTF-8"?>
<!DOCTYPE svg PUBLIC "-//W3C//DTD SVG 1.1//EN" "http://www.w3.org/Graphics/SVG/1.1/DTD/svg11.dtd">
<!-- Creator: CorelDRAW 2021 (64-Bit) -->
<svg xmlns="http://www.w3.org/2000/svg" xml:space="preserve" width="297mm" height="210mm" version="1.1" style="shape-rendering:geometricPrecision; text-rendering:geometricPrecision; image-rendering:optimizeQuality; fill-rule:evenodd; clip-rule:evenodd"
viewBox="0 0 29700 21000"
 xmlns:xlink="http://www.w3.org/1999/xlink"
 xmlns:xodm="http://www.corel.com/coreldraw/odm/2003">
 <defs>
  <style type="text/css">
   <![CDATA[
    .fil0 {fill:url(#id0)}
   ]]>
  </style>
  <linearGradient id="id0" gradientUnits="userSpaceOnUse" x1="232.89" y1="10507.13" x2="29466.04" y2="10507.13">
   <stop offset="0" style="stop-opacity:1; stop-color:white"/>
   <stop offset="0.611765" style="stop-opacity:1; stop-color:gray"/>
   <stop offset="1" style="stop-opacity:1; stop-color:black"/>
  </linearGradient>
 </defs>
 <g id="Capa_x0020_1">
  <metadata id="CorelCorpID_0Corel-Layer"/>
  <path class="fil0" d="M267.09 17115.13l163.31 -362.65c670.38,685.84 299.57,-94.27 648.26,-26.94 120.57,23.27 244.77,52.16 322.67,-48.67 175.2,-226.79 123.44,-96.91 401.08,-175.68 99.67,-28.28 67.47,-22.53 137.05,-65.48l253.69 -242.74 101.45 -29.29c83.38,-169.88 -3.94,-57.53 123.18,-130.97 58.71,-33.94 118.74,-30.16 185.13,-40.56l33.82 -150.56 18.86 -58.92c217.75,-128.72 300.93,-225.72 399.87,-447.95l11.8 -46.08c55.86,-8.64 32.88,-1.74 62.8,-85.02 0.02,-0.04 132.78,-200.82 146.73,-237.57 68.22,-179.73 -18.7,-135.72 86.94,-328.93 87.13,-159.34 241.49,-285.67 287.67,-458.75 161.1,-133.21 294.59,-325 390.76,-527.05 134.02,-281.56 133.77,-370.87 177.69,-735.56 89.52,-94.65 144.73,-422.9 183.04,-622.26 60.18,-58.8 173.5,-493.62 182.31,-645.12 142.72,-67.31 81.56,-221.47 378.31,-329.59 11.32,-77.64 7.02,-89.76 -23.46,-182.06 -113.99,-345.24 -2.11,183.58 -35.46,-97.71 -34.34,-289.74 -75.17,241.09 10.97,-103.46 59.09,-236.33 133.2,-83.37 -145.52,-495.01 -45.37,-67.02 -17.58,-33.12 -67.51,-76.19 -16.46,-14.21 -381.75,-215.35 -314.32,-601.98 -90.65,-86.1 -54.73,85.81 -99.06,-188.02l-92.7 -595.51c-21.44,-189.9 -81.23,-311.71 -76.47,-556.26 7.14,-368.01 82.95,-853.95 314.54,-1026.17 321.64,8.88 262.67,241.61 530.71,12.45l-638.6 -1411.91c-61.63,-168.88 -122.87,-362.63 -173.15,-519.98 -54.39,-170.26 -118.55,-344.05 -149.23,-534.11 -54.15,-335.41 -55.42,-283.63 -155.32,-529.68 -91.6,-225.62 -29.9,-421.53 -51.69,-646.91 -31.81,-328.88 -41.31,115.36 -82.22,-604.36l45.91 -379.28 212.63 -11.49 168.03 313.84c269.37,-149.32 -106.17,-228.56 522.21,-209.84 1521.28,45.34 1836,106.64 3303.03,253.89 304.97,30.62 309.22,81.4 568.11,119.11 268.7,39.15 377.26,91.39 691.59,112.54 375.4,76.43 1215.2,334.64 1513.73,500.09l-317.01 -14.82c-2465.14,-651.86 -3816.59,-416.67 -6300.52,-438.6l-28.25 499.27c-5.97,367.16 57.09,648.95 113.22,966.7 30.86,174.68 68.83,273.34 107.24,455.2 32.71,154.75 47.41,344.13 183.36,425.95 -10.31,138.96 67.76,305.92 134.13,438.34l100.09 154.68 88.75 324.34c33.02,184.95 31.33,182.29 212.28,180.89l118.57 -454.95c213.15,-13.27 247.69,44.55 376.91,125.52 154.62,98.38 225.41,220.62 491.87,356.67 126.02,64.35 192.19,97.53 309.48,156.57 160.77,80.93 176.28,76.28 260.24,217.07 170.77,63.67 250.84,152.51 307.04,395.14 -98.41,90.69 -33.38,33.86 -99.6,140.53 -172.27,277.56 -169.94,155.53 -338.61,356.43 -511.52,609.29 -310.38,563.3 -68.64,898.17 6.19,8.57 14.91,21.26 20.69,29.03l72.91 85.09 92.93 302.93 326.07 32.57 158.66 223.3c96.08,99.22 110.97,47.74 91.36,274.28l107.18 16.9c4.4,35.28 9.45,194.58 35.93,293.78l951.49 1577.02c38.43,162.17 82.1,252.82 136.89,432.39 41.03,134.52 73.21,242.75 124.66,292.17 29.6,191.7 91.24,323.43 108.65,434.58 13.87,88.4 -3.18,134.92 8.4,223.72 28.63,219.61 10.99,109.93 70.69,175.34l15.62 515.37 21.18 1008.49c-128.41,160.8 -148.21,574.98 -106.62,687 -105.09,83.02 -50.05,12.09 -93.75,145.02 -30.55,92.97 -5.07,76.68 1.19,119.14l-129.39 270.62c-37.02,118.61 -59.09,186.13 -23.65,281.13 40.98,93.5 66.53,158.66 71.39,300.18 161.88,-17.38 125.32,-29.75 238.72,122.36 166.74,223.72 243.54,167.52 716.64,247.27l1128.8 136.47c382.9,44.57 557.69,73.96 993.25,73.48 334.51,-0.39 773.59,-25.36 1073.84,-6.57 -47.06,107.59 41.99,-55.94 -29.61,71.11l67.51 40.02c76.45,40.26 155.24,94.85 408.1,110.19 556.35,33.75 1101.62,98.22 1595.86,-121.25l341.62 -117.02c62.53,-24.97 -41.44,-0.14 104.5,-41.41 356.05,-100.68 132.03,12.26 353.68,-102.44 182.46,-94.43 803.4,-269.72 1035.97,-287.06 148.49,-18.27 110.63,-3.77 220.36,-80.06 -4.09,-316.26 39.56,-406.42 -126.33,-523.9 -183.74,6.49 -295.23,67.01 -389.24,-75.14 101.67,-224.35 201.38,-11.28 356.31,-197.12 197.39,-236.75 -66.51,-211.38 148.29,-388.22 206.36,70.99 114.88,120.94 169.54,386.75l453.23 -12.95 -21.94 211.09 -360.42 15.1c-33.79,151.12 -43.07,219.89 56.91,414.93l45.58 73.76c4.36,-7.98 15.95,26.64 25.85,39.55l552.84 -57.11c206.59,-267.9 110.68,-215.5 212.3,-410.63l106.98 -167.07c194.29,-113.91 80.57,-78.56 195.22,-199.06l45.84 -123.3 -195.97 -46.5c33.35,-198.68 45.88,-83.2 99.55,-306 216.76,-217.9 371.43,-147.42 581.79,-96.01 107.27,141.75 -29.87,18.15 113.83,81.65 82.88,36.62 41.36,18.47 131.05,31.36 63.43,9.11 128.03,-5.95 236.91,11.32l8.78 231.6 -138.51 25.32c-191.62,18.56 -49.08,-24.75 -340.88,118.25l81.93 160.91 0 97.42c168.96,11.55 239.95,55.24 268.98,190.27l185.22 346.55c100.12,-8.32 330.31,-66.8 384.57,-108.51 26.37,-20.28 126.11,98.01 75.24,-314.67 -234.38,-84.21 -310.91,-9.41 -361.97,-206.85 154.13,-104.21 123.36,-69.3 369.39,-93.89l15.52 -240.67c206.86,-79.24 46.84,-58.43 249.49,-27.93l70.17 280.25 167.49 33.93c211.79,9.51 173.34,-11.69 152.77,209.37l-327.57 24.94c-100.44,163.69 -33.81,339.49 26.21,487.85l1087.68 -37.77c91.07,-149.1 -9.4,-63.69 110.96,-135.17l144.48 -58.48c6.88,-16.54 27.25,-6.91 39.27,-13.85 -9.27,-8.37 -22.95,-17.74 -29.55,-23.02 -6.54,-5.22 -21.08,-16.63 -29,-23.04l-49.25 -213.64c-153.82,-114.49 -241.72,30.62 -396.91,-16.77l5.07 -184.33c204.76,-89.1 154.06,40.3 268.67,-138.68 108.64,-44.69 181.65,-56.86 189.69,-279.82 94.75,-380.36 211.59,-52.51 246.3,224.96 171.68,143.12 269.4,-10.17 422.09,66.41 -17.63,147.23 61.75,-2.49 -151.61,203.36 -131.63,127 -202.8,145.89 -190.16,402.25 147.58,-38.09 295.49,-71.18 432.08,-115.2 401.98,-129.54 371.24,129.19 690.99,165.78 444.33,50.87 1058.9,-140.95 1337.96,-145.62 113.4,-1.89 727.15,143.34 760.08,162.32l115.57 154.79c230.12,11.01 266.37,-22.29 408.33,90.54 138.25,289.4 49.29,544.73 328.93,129.05l261.69 -180.02c1077.02,218.57 1790.97,1001.98 3069.75,1139.86l365.45 383.55 -3696.89 -5.65 -879.67 0 -2362.13 0 -8271 0 -13739.6 0c-184.92,-191.05 -359.66,-575.36 -249.66,-1122.34zm6655.48 -5131.6c-115.35,71.91 -53.8,-84.05 -88.3,172.23 -0.36,2.75 9.41,165.55 10.76,178.37 10.58,99.39 46.73,304.9 50.04,314.93 11.98,238.14 50.75,576.91 82.79,823.29 24.37,187.26 52.93,237.17 86.39,372.99 31.12,126.3 26.75,247.92 51.74,359.38 32.65,192.7 51.88,349.13 114.28,498.19 55.7,133.06 111.34,224.77 170.69,356.68l170.55 229.05c50.63,111.72 87.03,206.53 175.38,325.92 50.59,68.35 139.83,161.62 170.92,201.99 106.3,341.26 199.77,264.49 311.2,260.62l32.99 -186.85c37.34,-190.86 81.61,-76.8 102.3,-371.29l92.87 -364.6 56.69 -193.57c72.19,-429.35 61.93,-1199.95 -63.57,-1561.93l-16.16 -184.31 -330.57 -979.12c-16.54,-86.41 20.64,0.4 -24.22,-90.89 -36.9,-75.08 -25.9,-38.23 -69.26,-82.13 -0.79,-290.9 -538.32,-988.61 -576.22,-1060.08 -42.6,-80.37 -44.06,-131.59 -81.54,-196.78 -118.18,-205.58 -0.75,-81.56 -164.14,-138.75 -47.67,175.27 7.19,527.83 -20.92,641.44 -47.07,190.3 -59,-63.69 -84.15,245.79 -10.02,123.35 2.19,236.48 -6.52,387.86l-154.02 41.57z"/>
 </g>
</svg>
